<?xml version="1.0" encoding="UTF-8"?>
<!DOCTYPE svg PUBLIC "-//W3C//DTD SVG 1.0//EN" "http://www.w3.org/TR/2001/REC-SVG-20010904/DTD/svg10.dtd">
<!-- Creator: CorelDRAW 2021 (64-Bit) -->
<svg xmlns="http://www.w3.org/2000/svg" xml:space="preserve" width="57px" height="32px" version="1.0" style="shape-rendering:geometricPrecision; text-rendering:geometricPrecision; image-rendering:optimizeQuality; fill-rule:evenodd; clip-rule:evenodd"
viewBox="0 0 57 32.06"
 xmlns:xlink="http://www.w3.org/1999/xlink"
 xmlns:xodm="http://www.corel.com/coreldraw/odm/2003">
 <defs>
  <style type="text/css">
   <![CDATA[
    .fil0 {fill:black}
    .fil1 {fill:white;fill-rule:nonzero}
   ]]>
  </style>
 </defs>
 <g id="Capa_x0020_1">
  <metadata id="CorelCorpID_0Corel-Layer"/>
  <g id="_1359845789216">
   <rect class="fil0" x="28.03" y="15.56" width="0.95" height="0.95"/>
   <path class="fil1" d="M28.14 16.22l0.1 0 0 -0.12 0.05 0c0.09,0 0.14,-0.04 0.14,-0.13 0,-0.09 -0.06,-0.13 -0.14,-0.13l-0.15 0 0 0.38zm0.1 -0.3l0.01 0c0.04,0 0.08,0 0.08,0.05 0,0.05 -0.04,0.05 -0.08,0.05l-0.01 0 0 -0.1zm0.33 -0.08l-0.11 0 0.16 0.38 0.08 0 0.16 -0.38 -0.11 0 -0.09 0.23 -0.09 -0.23z"/>
  </g>
 </g>
</svg>
